<svg width="20" height="20" viewBox="0 0 20 20" fill="none" xmlns="http://www.w3.org/2000/svg">
<g id="emojione-monotone:cross-mark-button" clip-path="url(#clip0_108_14)">
<path id="Vector" d="M16.25 0.625H3.75C2.02375 0.625 0.625 2.02406 0.625 3.75V16.25C0.625 17.9759 2.02406 19.375 3.75 19.375H16.25C17.9759 19.375 19.375 17.9759 19.375 16.25V3.75C19.375 2.02406 17.9759 0.625 16.25 0.625ZM15.6244 13.3747L13.3747 15.625L9.99937 12.2497L6.625 15.625L4.37469 13.3747L7.74969 10L4.37469 6.62469L6.625 4.375L9.99937 7.74969L13.3747 4.375L15.6244 6.62469L12.2497 10L15.6244 13.3747Z" fill="black"/>
</g>
<defs>
<clipPath id="clip0_108_14">
<rect width="20" height="20" fill="white"/>
</clipPath>
</defs>
</svg>
